<?xml version="1.0" encoding="UTF-8"?>
<svg width="25px" height="24px" viewBox="0 0 25 24" version="1.1" xmlns="http://www.w3.org/2000/svg" xmlns:xlink="http://www.w3.org/1999/xlink">
    <!-- Generator: Sketch 49 (51002) - http://www.bohemiancoding.com/sketch -->
    <title>Shape</title>
    <desc>Created with Sketch.</desc>
    <defs></defs>
    <g id="Page-1" stroke="none" stroke-width="1" fill="none" fill-rule="evenodd">
        <g id="contact" transform="translate(-851.000000, -695.000000)" fill="#D9D9D9" fill-rule="nonzero">
            <g id="right-text" transform="translate(676.000000, 70.000000)">
                <g id="socials" transform="translate(15.000000, 625.000000)">
                    <path d="M183.323209,6.12641131 C182.205424,4.24172416 180.689221,2.74961471 178.774199,1.64974639 C176.858893,0.549821965 174.767949,0 172.499886,0 C170.232108,0 168.14048,0.549990261 166.225573,1.64974639 C164.31038,2.74955862 162.794234,4.24172416 161.676449,6.12641131 C160.558835,8.01104236 160,10.069074 160,12.3004503 C160,14.9808394 160.794671,17.3911139 162.384413,19.531891 C163.973984,21.6728363 166.027475,23.1542871 168.544714,23.9764114 C168.837727,24.0299294 169.054637,23.9922873 169.195672,23.8644387 C169.336763,23.7364218 169.407223,23.5760921 169.407223,23.3841229 C169.407223,23.3520906 169.40443,23.0639123 169.399014,22.5192514 C169.393427,21.9745905 169.390805,21.4994357 169.390805,21.0940114 L169.016443,21.1577394 C168.777756,21.200767 168.476648,21.218999 168.113117,21.2138379 C167.749757,21.2088452 167.372545,21.1713713 166.981993,21.1016969 C166.59127,21.0326396 166.227853,20.8724782 165.891457,20.6215494 C165.555233,20.3706205 165.316546,20.0421635 165.175455,19.6366831 L165.012701,19.2681156 C164.904218,19.0227405 164.733426,18.7501576 164.500098,18.4513767 C164.26677,18.1523152 164.03082,17.9495751 163.792134,17.8428195 L163.678177,17.7625425 C163.602245,17.7091927 163.531785,17.6448477 163.466626,17.5701805 C163.401525,17.4955133 163.352784,17.4207901 163.320233,17.3459546 C163.287625,17.271063 163.314647,17.2096351 163.401582,17.1614464 C163.488517,17.1132578 163.645627,17.0898647 163.873596,17.0898647 L164.198989,17.1377167 C164.416013,17.1805199 164.684457,17.3083685 165.004663,17.522048 C165.324698,17.7355591 165.587783,18.0131347 165.793976,18.3546627 C166.043665,18.7925681 166.344488,19.1262423 166.697302,19.3558537 C167.049831,19.5854651 167.405266,19.7000745 167.763268,19.7000745 C168.121269,19.7000745 168.430473,19.6733715 168.690993,19.6202462 C168.951227,19.5668404 169.195387,19.4865633 169.423356,19.3798639 C169.521008,18.6641585 169.786887,18.1143365 170.220764,17.7300053 C169.602356,17.6660529 169.046371,17.5697317 168.552524,17.4416587 C168.058961,17.3134174 167.548923,17.1052918 167.022752,16.8167208 C166.496297,16.5285425 166.05957,16.1706898 165.712457,15.7437798 C165.365287,15.3166453 165.080368,14.7558842 164.858099,14.0620011 C164.635717,13.3678375 164.524497,12.5670867 164.524497,11.6595243 C164.524497,10.367294 164.953186,9.26765005 165.810394,8.35997539 C165.40884,7.38846056 165.446749,6.29936316 165.924236,5.09279538 C166.238912,4.99658635 166.705568,5.06878519 167.323975,5.30894312 C167.942496,5.54921324 168.395356,5.75503885 168.683012,5.92569067 C168.970667,6.09628638 169.201144,6.24085236 169.374786,6.35809835 C170.384087,6.08057878 171.425654,5.94179095 172.499772,5.94179095 C173.57389,5.94179095 174.615685,6.08057878 175.625043,6.35809835 L176.243507,5.97387933 C176.666439,5.71750892 177.165873,5.48256816 177.740613,5.26900095 C178.315696,5.05554593 178.755444,4.99675465 179.059403,5.09296367 C179.547493,6.29958755 179.590989,7.38862886 179.189321,8.36014368 C180.046472,9.26781835 180.475332,10.3677428 180.475332,11.6596926 C180.475332,12.567255 180.363713,13.3705303 180.141673,14.0700232 C179.919347,14.7696283 179.631977,15.3298285 179.279448,15.7518019 C178.926521,16.1737191 178.487,16.5287669 177.96083,16.8168891 C177.434545,17.1052357 176.924336,17.3133613 176.430774,17.4416026 C175.936983,17.5698439 175.380998,17.6662212 174.76259,17.7302858 C175.326613,18.2106017 175.608682,18.9687737 175.608682,20.0044652 L175.608682,23.3836741 C175.608682,23.5756433 175.67652,23.7359169 175.812309,23.8639899 C175.947928,23.9918385 176.162102,24.0294807 176.455115,23.9759065 C178.972696,23.1538944 181.026187,21.6723876 182.615701,19.5314422 C184.205043,17.3906651 185,14.9803906 185,12.3000015 C184.99943,10.0689058 184.44031,8.01104236 183.323209,6.12641131 Z" id="Shape"></path>
                </g>
            </g>
        </g>
    </g>
</svg>