<?xml version="1.0" encoding="UTF-8"?>
<svg width="25px" height="24px" viewBox="0 0 25 24" version="1.1" xmlns="http://www.w3.org/2000/svg" xmlns:xlink="http://www.w3.org/1999/xlink">
    <!-- Generator: Sketch 49 (51002) - http://www.bohemiancoding.com/sketch -->
    <title>LinkedIn</title>
    <desc>Created with Sketch.</desc>
    <defs></defs>
    <g id="Page-1" stroke="none" stroke-width="1" fill="none" fill-rule="evenodd">
        <g id="contact" transform="translate(-691.000000, -695.000000)" fill="#D9D9D9" fill-rule="nonzero">
            <g id="right-text" transform="translate(676.000000, 70.000000)">
                <g id="socials" transform="translate(15.000000, 625.000000)">
                    <path d="M24.9487819,14.6486659 L24.9487819,23.8723898 L19.6014501,23.8723898 L19.6014501,15.2664153 C19.6014501,13.1045244 18.8280162,11.6291183 16.8924594,11.6291183 C15.4149072,11.6291183 14.5356148,12.6234339 14.1487819,13.5852668 C14.0077146,13.9291183 13.9714037,14.4077146 13.9714037,14.8890371 L13.9714037,23.8723898 L8.62227378,23.8723898 C8.62227378,23.8723898 8.69431555,9.29669374 8.62227378,7.78654292 L13.9708817,7.78654292 L13.9708817,10.0666473 C13.9600348,10.0837007 13.9459397,10.1020882 13.9357309,10.1186195 L13.9708817,10.1186195 L13.9708817,10.0666473 C14.6814965,8.97215777 15.95058,7.40864269 18.7911833,7.40864269 C22.3104988,7.40858469 24.9487819,9.70771462 24.9487819,14.6486659 Z M3.02685615,0.0323665893 C1.19692575,0.0323665893 0,1.23265661 0,2.81107889 C0,4.35510441 1.16229698,5.59182135 2.95585847,5.59182135 L2.99158933,5.59182135 C4.85696056,5.59182135 6.01705336,4.35533643 6.01705336,2.81107889 C5.98190255,1.23265661 4.85696056,0.0323665893 3.02685615,0.0323665893 Z M0.317691415,23.8723898 L5.66479118,23.8723898 L5.66479118,7.78654292 L0.317691415,7.78654292 L0.317691415,23.8723898 Z" id="LinkedIn"></path>
                </g>
            </g>
        </g>
    </g>
</svg>