<?xml version="1.0" encoding="UTF-8"?>
<svg width="25px" height="21px" viewBox="0 0 25 21" version="1.1" xmlns="http://www.w3.org/2000/svg" xmlns:xlink="http://www.w3.org/1999/xlink">
    <!-- Generator: Sketch 49 (51002) - http://www.bohemiancoding.com/sketch -->
    <title>Shape</title>
    <desc>Created with Sketch.</desc>
    <defs></defs>
    <g id="Page-1" stroke="none" stroke-width="1" fill="none" fill-rule="evenodd">
        <g id="contact" transform="translate(-771.000000, -698.000000)" fill="#D9D9D9" fill-rule="nonzero">
            <g id="right-text" transform="translate(676.000000, 70.000000)">
                <g id="socials" transform="translate(15.000000, 625.000000)">
                    <path d="M105,5.42066993 C104.079861,5.82839052 103.092565,6.10490196 102.055229,6.22834967 C103.11442,5.5940768 103.925204,4.58803105 104.309477,3.39293301 C103.315931,3.98031046 102.21924,4.4068219 101.050694,4.63803105 C100.114951,3.63978758 98.7839461,3.01801471 97.3076389,3.01801471 C94.4753676,3.01801471 92.1789216,5.31446078 92.1789216,8.14517974 C92.1789216,8.54665033 92.2242239,8.93876634 92.3117239,9.31372549 C88.0500408,9.0996732 84.2710784,7.05788399 81.7418709,3.95531046 C81.2997549,4.71143791 81.0482435,5.59248366 81.0482435,6.53296569 C81.0482435,8.3123366 81.9543301,9.88235294 83.329085,10.8008987 C82.4886029,10.7727941 81.6981209,10.541585 81.0060866,10.1572712 L81.0060866,10.2213235 C81.0060866,12.7052288 82.7745098,14.778268 85.1193627,15.2500817 C84.6897467,15.3656863 84.2367239,15.4297386 83.7680556,15.4297386 C83.4368873,15.4297386 83.1166258,15.3969363 82.8026144,15.3344363 C83.4555964,17.3731209 85.3490196,18.8556373 87.5923611,18.8962827 C85.8379902,20.2710376 83.6258987,21.0880719 81.2232435,21.0880719 C80.8092729,21.0880719 80.4015114,21.0630719 80.0000408,21.0177696 C82.2699346,22.4753268 84.9647467,23.3251634 87.8610703,23.3251634 C97.2952206,23.3251634 102.452083,15.5109886 102.452083,8.73415033 L102.434886,8.07022059 C103.442484,7.35155229 104.314175,6.44861111 105,5.42066993 Z" id="Shape"></path>
                </g>
            </g>
        </g>
    </g>
</svg>