<svg version="1" xmlns="http://www.w3.org/2000/svg" width="400" height="400" viewBox="0 0 300 300"><path d="M122 143.1c-11.8 1.6-21.4 8.3-26.3 18.4-1.5 3-2.9 5.5-3 5.5-.1 0-.1-4.9 0-11l.3-11H62.5c-29.4 0-30.4.1-30.2 1.9.1 2.3 1.4 2.7 8.5 2.6 5.1 0 5.2 0 5.3 3 .1 3.8.1 101.1 0 104.6-.1 2.4-.3 2.5-6.6 2.4-3.6-.1-6.5.1-6.6.4 0 .3-.2 1.4-.4 2.4-.3 1.6 1.9 1.7 34.7 1.7h34.9l-.3-2.2c-.2-1.9-.9-2.3-4-2.3-2-.1-4-.4-4.3-.7-.4-.3-.7-17.5-.6-38.1 0-40.8.6-46.3 5.8-55.8 3.2-5.9 6-8.7 10.2-9.9 2.8-.8 3.6-.6 5.7 1.5 1.3 1.3 2.4 3 2.5 3.7 0 .7.2 2.4.5 3.8.3 2.1.8 83.7.5 92.6-.1 2.8-.3 3-4.1 2.9-3.8-.1-5.8 1.5-4.4 3.6.3.5 14.4.9 32.5.9h32l-.3-2.2c-.2-1.9-.9-2.3-4-2.3-2-.1-4-.4-4.4-.7-.3-.4-.6-18.1-.5-39.5 0-40.9.4-45.2 5-54.1 5-9.7 14.6-13.7 18-7.4 1.9 3.5 2.3 13.7 2.3 54.2 0 22.8-.1 42.9-.1 44.6-.1 2.8-.3 3-4.1 2.9-3.8-.1-5.8 1.5-4.4 3.6.3.5 15.4.9 35 .9H251l-.4-2.3c-.3-2-.8-2.2-6.4-2.2-3.3 0-6.3-.3-6.7-.6-.3-.4-.6-18.6-.7-40.5 0-22-.4-42.6-1-45.9-2.1-13.7-9.4-23.3-20.7-27.6-10.4-3.9-27.2-2.6-36.1 2.9-4.5 2.8-10.3 9.6-13 15.4l-2.7 5.8-2.2-5.8c-3.8-10.7-13.5-18.7-23.8-19.8-2.7-.3-5.9-.6-7.3-.8-1.4-.1-5 .1-8 .5z"/></svg>