<?xml version="1.0" standalone="no"?>
<!DOCTYPE svg PUBLIC "-//W3C//DTD SVG 20010904//EN"
 "http://www.w3.org/TR/2001/REC-SVG-20010904/DTD/svg10.dtd">
<svg version="1.0" xmlns="http://www.w3.org/2000/svg"
 width="333.000000pt" height="333.000000pt" viewBox="0 0 333.000000 333.000000"
 preserveAspectRatio="xMidYMid meet">
<metadata>
Created by potrace 1.11, written by Peter Selinger 2001-2013
</metadata>
<g transform="translate(0.000000,333.000000) scale(0.100000,-0.100000)"
fill="#000000" stroke="none">
<path d="M1430 3118 c-144 -24 -296 -74 -425 -140 -86 -43 -196 -111 -231
-143 -6 -5 -28 -23 -49 -40 -98 -77 -253 -256 -321 -371 -43 -72 -121 -238
-129 -274 -2 -8 -10 -34 -19 -57 -39 -110 -60 -255 -60 -423 -1 -215 14 -313
73 -488 140 -416 451 -744 861 -907 188 -75 350 -104 565 -99 88 2 169 5 180
7 11 2 40 7 65 12 25 4 52 9 61 10 78 15 290 93 367 137 64 35 127 72 137 80
195 148 289 242 393 393 96 140 172 305 211 457 39 152 46 212 45 393 0 184
-18 298 -68 450 -74 220 -187 409 -339 565 -104 107 -129 128 -257 214 -138
93 -285 157 -455 200 -136 34 -157 37 -335 41 -121 2 -180 -1 -270 -17z"/>
</g>
</svg>
