<?xml version="1.0" standalone="no"?>
<!DOCTYPE svg PUBLIC "-//W3C//DTD SVG 20010904//EN"
 "http://www.w3.org/TR/2001/REC-SVG-20010904/DTD/svg10.dtd">
<svg version="1.0" xmlns="http://www.w3.org/2000/svg"
 width="300.000000pt" height="300.000000pt" viewBox="0 0 300.000000 300.000000"
 preserveAspectRatio="xMidYMid meet">
<metadata>
Created by potrace 1.11, written by Peter Selinger 2001-2013
</metadata>
<g transform="translate(0.000000,300.000000) scale(0.100000,-0.100000)"
fill="#000000" stroke="none">
<path d="M1220 1569 c-118 -16 -214 -83 -263 -184 -15 -30 -29 -55 -30 -55 -1
0 -1 49 0 110 l3 110 -305 0 c-294 0 -304 -1 -302 -19 1 -23 14 -27 85 -26 51
0 52 0 53 -30 1 -38 1 -1011 0 -1046 -1 -24 -3 -25 -66 -24 -36 1 -65 -1 -66
-4 0 -3 -2 -14 -4 -24 -3 -16 19 -17 347 -17 l349 0 -3 22 c-2 19 -9 23 -40
23 -20 1 -40 4 -43 7 -4 3 -7 175 -6 381 0 408 6 463 58 558 32 59 60 87 102
99 28 8 36 6 57 -15 13 -13 24 -30 25 -37 0 -7 2 -24 5 -38 3 -21 8 -837 5
-926 -1 -28 -3 -30 -41 -29 -38 1 -58 -15 -44 -36 3 -5 144 -9 325 -9 l320 0
-3 22 c-2 19 -9 23 -40 23 -20 1 -40 4 -44 7 -3 4 -6 181 -5 395 0 409 4 452
50 541 50 97 146 137 180 74 19 -35 23 -137 23 -542 0 -228 -1 -429 -1 -446
-1 -28 -3 -30 -41 -29 -38 1 -58 -15 -44 -36 3 -5 154 -9 350 -9 l344 0 -4 23
c-3 20 -8 22 -64 22 -33 0 -63 3 -67 6 -3 4 -6 186 -7 405 0 220 -4 426 -10
459 -21 137 -94 233 -207 276 -104 39 -272 26 -361 -29 -45 -28 -103 -96 -130
-154 l-27 -58 -22 58 c-38 107 -135 187 -238 198 -27 3 -59 6 -73 8 -14 1 -50
-1 -80 -5z"/>
</g>
</svg>
